<svg xmlns="http://www.w3.org/2000/svg" enable-background="new 0 0 64 64" viewBox="0 0 64 64" id="access-control-cloud"><path fill="#4e5292" d="M54.05,23.42c-0.25-5.53-4.82-9.95-10.43-9.95c-1.14,0-2.26,0.19-3.33,0.55c-2.19-4.59-6.81-7.53-11.92-7.53
			c-5.3,0-9.99,3.08-12.09,7.91c-0.73-0.2-1.5-0.3-2.28-0.3c-4.93,0-8.96,4.01-8.96,8.95c0,0.59,0.07,1.18,0.19,1.76
			C1.99,26.67,0,30.1,0,33.85c0,5.75,4.69,10.43,10.44,10.43h0.92v8.36H9.36c-0.15,0-0.29,0.07-0.38,0.18
			c-0.09,0.12-0.13,0.27-0.1,0.4l0.22,1.14c0.36,1.82,1.87,3.15,3.58,3.15h36.67c1.71,0,3.22-1.33,3.58-3.15l0.22-1.14
			c0.03-0.14-0.01-0.29-0.1-0.4c-0.1-0.11-0.24-0.18-0.38-0.18h-1.98v-8.36h2.88C59.32,44.28,64,39.6,64,33.85
			C64,28.25,59.58,23.67,54.05,23.42z M52.08,53.62l-0.11,0.54c-0.28,1.37-1.37,2.36-2.62,2.36H12.68c-1.25,0-2.34-0.99-2.61-2.35
			l-0.11-0.55h14.4l0.44,1.54c0.06,0.22,0.26,0.35,0.47,0.35h11.46c0.22,0,0.41-0.14,0.47-0.35l0.44-1.54H52.08z M49.7,43.8v8.84
			H12.34V28.16c0-0.9,0.68-1.61,1.51-1.61h34.34c0.84,0,1.52,0.72,1.52,1.61v15.61C49.7,43.78,49.69,43.78,49.7,43.8
			C49.69,43.79,49.7,43.79,49.7,43.8z M36.64,53.62l-0.27,0.91H25.66l-0.27-0.91H36.64z M53.56,43.29h-2.88V28.16
			c0-1.44-1.12-2.6-2.5-2.6H13.84c-1.38,0-2.49,1.16-2.49,2.6v15.13h-0.92c-5.21,0-9.45-4.24-9.45-9.44c0-3.52,1.93-6.72,5.03-8.35
			c0.2-0.11,0.31-0.34,0.25-0.56c-0.16-0.62-0.25-1.26-0.25-1.89c0-4.4,3.58-7.97,7.98-7.97c0.85,0,1.65,0.13,2.42,0.37
			c0.25,0.08,0.51-0.04,0.61-0.29c1.84-4.68,6.3-7.7,11.34-7.7c4.87,0,9.28,2.89,11.21,7.36c0.11,0.25,0.39,0.36,0.64,0.27
			c1.08-0.43,2.23-0.65,3.41-0.65c5.22,0,9.45,4.23,9.45,9.45c0,0.27,0.23,0.49,0.49,0.49c5.22,0,9.45,4.23,9.45,9.45
			C63.02,39.05,58.78,43.29,53.56,43.29z"></path><polygon fill="#d8dfe6" points="36.64 53.62 36.37 54.53 25.66 54.53 25.39 53.62"></polygon><path fill="#ffdb7c" d="M52.08,53.62l-0.11,0.54c-0.28,1.37-1.37,2.36-2.62,2.36H12.68c-1.25,0-2.34-0.99-2.61-2.35l-0.11-0.55h14.4
			l0.44,1.54c0.06,0.22,0.26,0.35,0.47,0.35h11.46c0.22,0,0.41-0.14,0.47-0.35l0.44-1.54H52.08z"></path><path fill="#e1ba62" d="M51.09,55.79c-0.47,0.46-1.08,0.74-1.74,0.74H12.68c-1.25,0-2.34-0.99-2.61-2.35l-0.11-0.55h1.96
			c0.32,1.26,1.37,2.17,2.56,2.17H51.09z"></path><path fill="#f0ca6c" d="M51.81,54.71c-0.17,0.42-0.41,0.79-0.72,1.08H14.48c-1.19,0-2.23-0.91-2.56-2.17h4.62
			c0.49,0.67,1.24,1.08,2.05,1.08h6.09l0.13,0.45c0.06,0.22,0.26,0.35,0.47,0.35h11.46c0.22,0,0.41-0.14,0.47-0.35l0.11-0.38
			l0.02-0.07H51.81z"></path><path fill="#ffdb7c" d="M49.7,28.16c0-0.9-0.68-1.61-1.52-1.61H13.84c-0.83,0-1.51,0.72-1.51,1.61v24.48H49.7V43.8
			c0-0.01-0.01-0.01-0.01-0.01c0-0.01,0.01-0.01,0.01-0.02V28.16z M28.75,27.4h4.54c0.27,0,0.49,0.23,0.49,0.49
			c0,0.28-0.23,0.49-0.49,0.49h-4.54c-0.28,0-0.49-0.22-0.49-0.49C28.26,27.63,28.48,27.4,28.75,27.4z M48.19,50.66
			c0,0.28-0.22,0.49-0.49,0.49H14.34c-0.28,0-0.49-0.22-0.49-0.49V29.75c0-0.28,0.22-0.49,0.49-0.49h33.36
			c0.28,0,0.49,0.22,0.49,0.49V50.66z"></path><path fill="#f0ca6c" d="M49.7,45.3v6.41H14.63c-0.73,0-1.32-0.58-1.32-1.31V27.23c0-0.22,0.04-0.43,0.12-0.62
			c0.13-0.05,0.27-0.07,0.41-0.07h5.89v2.71h-5.4c-0.28,0-0.49,0.22-0.49,0.49v20.91c0,0.28,0.22,0.49,0.49,0.49h33.36
			c0.28,0,0.49-0.22,0.49-0.49V45.3H49.7z"></path><path fill="#e1ba62" d="M49.7,51.71v0.93H12.34V28.16c0-0.74,0.46-1.36,1.09-1.55c-0.08,0.19-0.12,0.4-0.12,0.62V50.4
			c0,0.73,0.59,1.31,1.32,1.31H49.7z"></path><path fill="#d8dfe6" d="M63.02,33.85c0,5.2-4.23,9.44-9.45,9.44h-2.88V28.16c0-1.44-1.12-2.6-2.5-2.6H13.84
			c-1.38,0-2.49,1.16-2.49,2.6v15.13h-0.92c-5.21,0-9.45-4.24-9.45-9.44c0-3.52,1.93-6.72,5.03-8.35c0.2-0.11,0.31-0.34,0.25-0.56
			c-0.16-0.62-0.25-1.26-0.25-1.89c0-4.4,3.58-7.97,7.98-7.97c0.85,0,1.65,0.13,2.42,0.37c0.25,0.08,0.51-0.04,0.61-0.29
			c1.84-4.68,6.3-7.7,11.34-7.7c4.87,0,9.28,2.89,11.21,7.36c0.11,0.25,0.39,0.36,0.64,0.27c1.08-0.43,2.23-0.65,3.41-0.65
			c5.22,0,9.45,4.23,9.45,9.45c0,0.27,0.23,0.49,0.49,0.49C58.78,24.4,63.02,28.63,63.02,33.85z"></path><path fill="#b5c3cc" d="M37.97,12.15c-2.11-1.66-4.74-2.61-7.53-2.61c-5.04,0-9.5,3.02-11.34,7.7c-0.1,0.25-0.36,0.36-0.61,0.29
			c-0.77-0.25-1.58-0.37-2.42-0.37c-4.39,0-7.98,3.56-7.98,7.97c0,0.63,0.09,1.27,0.25,1.89c0.06,0.22-0.05,0.45-0.25,0.56
			c-3.1,1.63-5.03,4.83-5.03,8.35c0,2.08,0.68,4,1.82,5.55c-2.35-1.71-3.89-4.5-3.89-7.62c0-3.52,1.93-6.72,5.03-8.35
			c0.2-0.11,0.31-0.34,0.25-0.56c-0.16-0.62-0.25-1.26-0.25-1.89c0-4.4,3.58-7.97,7.98-7.97c0.85,0,1.65,0.13,2.42,0.37
			c0.25,0.08,0.51-0.04,0.61-0.29c1.84-4.68,6.3-7.7,11.34-7.7C32.18,7.47,35.7,9.25,37.97,12.15z"></path><path fill="#ccd5dd" d="M38.51,12.9c-0.29-0.02-0.57-0.03-0.87-0.03c-5.04,0-9.5,3.02-11.34,7.7c-0.1,0.25-0.36,0.36-0.61,0.29
			c-0.77-0.25-1.58-0.37-2.42-0.37c-3.38,0-6.28,2.11-7.43,5.08h-1.99c-1.38,0-2.49,1.16-2.49,2.6v6.67
			c-0.71,1.34-1.09,2.85-1.09,4.42c0,1.45,0.32,2.82,0.92,4.05h-0.74c-2.08,0-4.01-0.68-5.56-1.82C3.73,39.92,3.05,38,3.05,35.92
			c0-3.52,1.93-6.72,5.03-8.35c0.2-0.11,0.31-0.34,0.25-0.56c-0.16-0.62-0.25-1.26-0.25-1.89c0-4.4,3.58-7.97,7.98-7.97
			c0.85,0,1.65,0.13,2.42,0.37c0.25,0.08,0.51-0.04,0.61-0.29c1.84-4.68,6.3-7.7,11.34-7.7c2.8,0,5.43,0.95,7.53,2.61
			C38.15,12.39,38.34,12.64,38.51,12.9z"></path><path fill="#d8dfe6" d="M10.26,39.25c0-1.58,0.38-3.08,1.09-4.42v8.47h-0.18C10.58,42.06,10.26,40.69,10.26,39.25z"></path><path fill="#4e5292" d="M47.69,29.25H14.34c-0.28,0-0.49,0.22-0.49,0.49v20.91c0,0.28,0.22,0.49,0.49,0.49h33.36
			c0.28,0,0.49-0.22,0.49-0.49V29.75C48.19,29.47,47.97,29.25,47.69,29.25z M47.2,50.17H14.83V30.24H47.2V50.17z"></path><path fill="#bbe0f6" d="M14.83,30.24v19.93H47.2V30.24H14.83z M35.74,43.54c0,1.62-1.06,3-2.53,3.49c-0.33,0.11-0.69,0.17-1.06,0.18
			h-2.2c-0.63,0-1.21-0.16-1.72-0.43c-1.15-0.62-1.94-1.83-1.94-3.23v-3.31c0-0.48,0.39-0.88,0.88-0.88h0.04v-1.5
			c0-0.93,0.33-1.81,0.96-2.51c0.05-0.07,0.11-0.13,0.17-0.19c0.22-0.22,0.44-0.4,0.7-0.55c0.59-0.36,1.28-0.56,1.99-0.56
			c2.11,0,3.81,1.71,3.81,3.81v1.5h0.04c0.48,0,0.88,0.39,0.88,0.88V43.54z"></path><path fill="#4e5292" d="M33.78 27.89c0 .28-.23.49-.49.49h-4.54c-.28 0-.49-.22-.49-.49 0-.27.22-.49.49-.49h4.54C33.56 27.4 33.78 27.63 33.78 27.89zM34.87 39.35h-.04v-1.5c0-2.1-1.7-3.81-3.81-3.81-1.01 0-1.98.39-2.69 1.11-.73.72-1.12 1.68-1.12 2.7v1.5h-.04c-.48 0-.88.39-.88.88v3.31c0 2.02 1.64 3.66 3.66 3.66h2.13c2.02 0 3.66-1.64 3.66-3.66v-3.31C35.74 39.75 35.35 39.35 34.87 39.35zM28.19 37.86c0-.76.3-1.47.83-2 .53-.53 1.24-.83 2-.83 1.56 0 2.83 1.27 2.83 2.83v1.5h-5.65V37.86zM34.76 43.54c0 1.48-1.2 2.68-2.68 2.68h-2.13c-1.48 0-2.68-1.2-2.68-2.68v-3.2h7.48V43.54z"></path><path fill="#bbe0f6" d="M33.84,37.86v1.5h-5.65v-1.5c0-0.76,0.3-1.47,0.83-2c0.53-0.53,1.24-0.83,2-0.83
			C32.57,35.03,33.84,36.3,33.84,37.86z"></path><path fill="#ec9aad" d="M27.27,40.34v3.2c0,1.48,1.2,2.68,2.68,2.68h2.13c1.48,0,2.68-1.2,2.68-2.68v-3.2H27.27z M31.51,43.37v0.83
			c0,0.27-0.22,0.49-0.49,0.49c-0.28,0-0.49-0.23-0.49-0.49v-0.83c-0.28-0.17-0.47-0.46-0.47-0.81c0-0.53,0.43-0.96,0.97-0.96
			c0.53,0,0.96,0.43,0.96,0.96C31.98,42.91,31.78,43.21,31.51,43.37z"></path><path fill="#d88b9e" d="M30.28,46.22h-0.32c-1.48,0-2.68-1.2-2.68-2.68v-3.2h1.14v3.2C28.42,45.02,29.25,46.22,30.28,46.22z"></path><path fill="#f1b8c7" d="M34.76,40.34v3.2c0,1.48-1.2,2.68-2.68,2.68h-0.32c1.02,0,1.86-1.2,1.86-2.68v-3.2H34.76z"></path><path fill="#4e5292" d="M31.98,42.56c0,0.34-0.2,0.64-0.47,0.81v0.83c0,0.27-0.22,0.49-0.49,0.49c-0.28,0-0.49-0.23-0.49-0.49v-0.83
			c-0.28-0.17-0.47-0.46-0.47-0.81c0-0.53,0.43-0.96,0.97-0.96C31.55,41.6,31.98,42.03,31.98,42.56z"></path><polygon fill="#a7d6e7" points="20.23 50.16 14.83 50.16 14.83 34.11"></polygon><path fill="#a7d6e7" d="M29.37 50.17h-1.12l-6.71-19.93h1.12l3.62 10.77v2.53c0 1.4.79 2.61 1.94 3.23L29.37 50.17zM27.56 30.24l1.47 4.37c-.26.15-.48.33-.7.55-.06.06-.12.12-.17.19l-1.72-5.11H27.56zM34.26 50.17h-1.12l-.99-2.96c.37-.01.73-.07 1.06-.18L34.26 50.17z"></path></svg>