<svg xmlns="http://www.w3.org/2000/svg" enable-background="new 0 0 68 68" viewBox="0 0 68 68" id="cybersecurity"><path fill="#FF7E7E" d="M53.5712,21.1228v22.3615c0,11.1326-8.0579,20.6651-19.0555,22.4387
				c-0.1638,0.0289-0.3374,0.0578-0.5205,0.0771c-0.1735-0.0193-0.347-0.0482-0.5108-0.0771
				c-10.9976-1.7735-19.0555-11.306-19.0555-22.4387V21.1228c13.8314,0,19.5663-6.9206,19.5663-6.9206
				S39.7398,21.1228,53.5712,21.1228z"></path><path fill="#EF3D3D" d="M53.5712,21.1228v22.3615c0,11.1326-8.0579,20.6651-19.0555,22.4387
				c-0.1638,0.0289-0.3374,0.0578-0.5205,0.0771c-0.1735-0.0193-0.347-0.0482-0.5108-0.0771
				c-4.7325-0.7614-8.9253-2.9591-12.1542-6.1109c4.1156-1.388,7.4603-3.3157,10.159-5.5904
				c5.1181-4.3277,7.9518-9.9181,9.4458-15.5374c1.9759-7.4314,1.5904-14.8916,1.012-19.5085
				C44.9061,20.2842,48.7519,21.1228,53.5712,21.1228z"></path><circle cx="34" cy="45.106" r="9.453" fill="#FFF"></circle><path fill="#DEE1E6" d="M43.4507,45.1035c0,5.2242-4.2314,9.4555-9.4459,9.4555c-0.8674,0-1.7156-0.1157-2.5157-0.3374
				c5.1181-4.3277,7.9518-9.9181,9.4458-15.5374C42.4964,40.3614,43.4507,42.6168,43.4507,45.1035z"></path><circle cx="34" cy="44.248" r="1.928" fill="#A3A6A8"></circle><path fill="#A3A6A8" d="M33.9983,48.6411c-0.4141,0-0.75-0.3359-0.75-0.75v-3.6426c0-0.4141,0.3359-0.75,0.75-0.75
					s0.75,0.3359,0.75,0.75v3.6426C34.7483,48.3052,34.4124,48.6411,33.9983,48.6411z"></path><circle cx="50.463" cy="7" r="5" fill="#FFF"></circle><circle cx="50.463" cy="7" r="2" fill="#4DABF4"></circle><circle cx="17.537" cy="7" r="5" fill="#FFF"></circle><path d="M41.8523,32.9302c0-4.333-3.5215-7.8579-7.8496-7.8579c-4.3869,0-7.8579,3.5586-7.8579,7.8579v5.3016
						c-1.6122,1.8398-2.5981,4.2415-2.5981,6.8741c0,5.7637,4.6895,10.4531,10.4536,10.4531
						c5.7637,0,10.4531-4.6895,10.4531-10.4531c0-2.6342-0.9871-5.0372-2.6011-6.8774V32.9302z M34.0027,27.0723
						c3.2256,0,5.8496,2.6279,5.8496,5.8579v3.5192c-1.671-1.1333-3.6854-1.7965-5.8521-1.7965
						c-2.1682,0-4.1838,0.6642-5.8555,1.7988v-3.5215C28.1448,29.7249,30.734,27.0723,34.0027,27.0723z M34.0002,53.5591
						c-4.6611,0-8.4536-3.792-8.4536-8.4531s3.7925-8.4531,8.4536-8.4531s8.4531,3.792,8.4531,8.4531
						S38.6614,53.5591,34.0002,53.5591z"></path><path d="M50.4631,13c3.3086,0,6-2.6914,6-6s-2.6914-6-6-6s-6,2.6914-6,6c0,1.7866,0.789,3.3885,2.0319,4.4886l-4.5325,6.6112
						c-4.9239-1.9125-7.1641-4.4967-7.1976-4.5363c-0.1899-0.229-0.4722-0.3613-0.7695-0.3613h-0.0005
						c-0.2974,0-0.5796,0.1328-0.7695,0.3618c-0.0341,0.0415-2.249,2.6322-7.1817,4.5448l-4.5384-6.6204
						C22.748,10.3882,23.5369,8.7864,23.5369,7c0-3.3086-2.6914-6-6-6s-6,2.6914-6,6s2.6914,6,6,6
						c0.804,0,1.5704-0.1615,2.2717-0.4496l4.2673,6.2249c-2.6033,0.786-5.7886,1.3473-9.647,1.3473c-0.5522,0-1,0.4478-1,1v22.3618
						c0,11.7148,8.3677,21.5669,19.8823,23.4233c0.1841,0.0322,0.3794,0.0649,0.5752,0.0864C33.9226,66.998,33.9592,67,33.9954,67
						c0.0347,0,0.0688-0.002,0.1035-0.0054c0.2075-0.0215,0.4038-0.0542,0.5762-0.0845
						c11.5283-1.8589,19.896-11.7109,19.896-23.4258V21.1226c0-0.5522-0.4478-1-1-1c-3.8488,0-7.0347-0.5648-9.6417-1.3549
						l4.2623-6.2172C48.893,12.8385,49.6592,13,50.4631,13z M13.5369,7c0-2.2056,1.7944-4,4-4s4,1.7944,4,4s-1.7944,4-4,4
						S13.5369,9.2056,13.5369,7z M52.571,43.4844c0,10.7275-7.6602,19.7495-18.228,21.4536
						c-0.1104,0.019-0.2251,0.0391-0.3447,0.0547c-0.1167-0.0156-0.2339-0.0361-0.3545-0.0571
						C23.0896,63.2339,15.429,54.2119,15.429,43.4844V22.1108c6.4186-0.1524,13.8671-2.0686,18.5669-6.4761
						c4.6853,4.3884,12.0548,6.3213,18.5752,6.4761V43.4844z M50.4631,3c2.2056,0,4,1.7944,4,4s-1.7944,4-4,4s-4-1.7944-4-4
						S48.2576,3,50.4631,3z"></path><circle cx="17.537" cy="7" r="2" fill="#4DABF4"></circle><g><path fill="#FFF" d="M19.4758 30.6606c-.4141 0-.75-.3359-.75-.75v-3c0-.4141.3359-.75.75-.75s.75.3359.75.75v3C20.2258 30.3247 19.8899 30.6606 19.4758 30.6606zM19.4758 39.1636c-.4141 0-.75-.3359-.75-.75v-4.5c0-.4141.3359-.75.75-.75s.75.3359.75.75v4.5C20.2258 38.8276 19.8899 39.1636 19.4758 39.1636z"></path></g></svg>