<svg xmlns="http://www.w3.org/2000/svg" viewBox="0 0 64 64" id="cyber-security"><path fill="#5e5e61" d="M59.96 47.04H4.04V14.67c0-1.4 1.14-2.54 2.54-2.54h50.84c1.4 0 2.54 1.14 2.54 2.54v32.37z"></path><path fill="#e9e9e9" d="M56.824 15.274v28.62H7.184v-28.62z"></path><path fill="#c7c7c7" d="M59.17 51.87H4.83C2.16 51.87 0 49.71 0 47.04h64c0 2.67-2.16 4.83-4.83 4.83z"></path><path fill="#95989f" d="M38.99 47.04H25.01c0 1.33 1.08 2.42 2.42 2.42h9.16c1.32-.01 2.4-1.09 2.4-2.42z"></path><path fill="#51bf9f" d="M32 40.81c-.57-1.1-3.15-1.62-3.15-1.62-2.8-.63-4.61-2.29-4.61-2.29-1.78-1.36-2.26-3.61-2.31-5.42-.04-1.14.1-2.27.37-3.38.93-3.9-1.57-5.1-1.57-5.1l1.14-2.36C28.1 22.53 32 18.35 32 18.35s3.9 4.18 10.13 2.29L43.27 23s-2.5 1.19-1.56 5.11c.26 1.11.4 2.24.37 3.38-.06 1.81-.54 4.06-2.31 5.42 0 0-1.81 1.65-4.61 2.29-.01 0-2.59.51-3.16 1.61z"></path></svg>