<svg xmlns="http://www.w3.org/2000/svg" width="64" height="64" id="lock"><path style="line-height:normal;text-indent:0;text-align:start;text-decoration-line:none;text-decoration-style:solid;text-decoration-color:#000;text-transform:none;block-progression:tb;isolation:auto;mix-blend-mode:normal" fill="#726f6f" fill-rule="evenodd" d="M694 1064.361v17h1v-17h-1zm10 29.994v1h13.5v4.872h1v-5.872H704zm-32.5 0v5.872h1v-4.872H686v-1h-14.5zm31-24.994v12h1v-11H717v-1h-14.5zm-30.5 0v1h13.5v11h1v-12H672zm-4.5 16.5v1h55v-1h-55z" color="#000" font-family="sans-serif" font-weight="400" overflow="visible" transform="translate(-662.5 -1050.362)"></path><path fill="#474545" d="M18 30h28c.554 0 1 .467 1 1.048v19.904c0 .58-.446 1.048-1 1.048H18c-.554 0-1-.467-1-1.048V31.048c0-.58.446-1.048 1-1.048z"></path><path fill="#cfd3d6" d="M14 49v1c0 1.108.892 2 2 2h32c1.108 0 2-.892 2-2v-1H14z"></path><path fill="#eff4f7" d="M14 49v1h36v-1z"></path><path fill="#726f6f" d="M36 49c0 .554-.446 1-1 1h-6c-.554 0-1-.446-1-1h8z"></path><path fill="#49b2d6" d="M19 32h26v15H19z"></path><path style="line-height:normal;text-indent:0;text-align:start;text-decoration-line:none;text-decoration-style:solid;text-decoration-color:#000;text-transform:none;block-progression:tb;isolation:auto;mix-blend-mode:normal" fill="#dfe3e6" d="M694.5 95.986a2.504 2.504 0 0 0-2.5 2.496V101h1v-2.518c0-.836.66-1.496 1.5-1.496s1.5.66 1.5 1.496V101h1v-2.518a2.504 2.504 0 0 0-2.5-2.496z" color="#000" font-family="sans-serif" font-weight="400" overflow="visible" transform="translate(-662.5 -62)"></path><path fill="#ffdc73" d="M29 38h6c.554 0 1 .446 1 1v5c0 .554-.446 1-1 1h-6c-.554 0-1-.446-1-1v-5c0-.554.446-1 1-1z"></path><path fill="#eff4f7" fill-rule="evenodd" d="M28 42h8v-3h-8z"></path><path fill="#5e5c5c" d="M29.5 40h1v1h-1zm2 0h1v1h-1zm2 0h1v1h-1zM28 44c0 .554.446 1 1 1h6c.554 0 1-.446 1-1h-8z"></path><path fill="#ffdc73" d="m28.5 44-.303.598A.987.987 0 0 0 29 45l.5-1zm2.5-1h1l-1 2h-1zm2 0h1l-1 2h-1zm2 0h1l-1 2h-1z"></path><path fill="#cfd3d6" d="M30 12h4v4h-4zM8 18h3v3H8zM2 34h4v4H2zm6 15h3v3H8zm49-31h-3v3h3zm6 16h-4v4h4zm-6 15h-3v3h3z"></path><path fill="#f4608a" d="M12 27h2v2h-2z"></path><path fill="#5e5c5c" d="M56 40h2v2h-2z"></path><path fill="#f4608a" d="M59 43h1v1h-1z"></path><path fill="#eff4f7" d="M3 35h2v2H3zm28-22h2v2h-2zm29 22h2v2h-2z"></path><path fill="#5e5c5c" d="M26 24h2v2h-2z"></path><path fill="#ffdc73" d="M29 20h1v1h-1z"></path><path fill="#f4608a" d="M22 15h1v1h-1z"></path><path fill="#49b2d6" d="M35 23h1v1h-1z"></path><path fill="#ffdc73" d="M41 13h2v2h-2z"></path><path fill="#5e5c5c" d="M11 39h1v1h-1z"></path><path fill="#f47b9f" d="M6 44h1v1H6z"></path><path fill="#49b2d6" d="M52 30h2v2h-2z"></path><path fill="#cfd3d6" d="M53 23h1v1h-1z"></path><path fill="#f4608a" d="M46 25h1v1h-1z"></path><path fill="#cfd3d6" d="M18 23h1v1h-1z"></path></svg>